<?xml version="1.0" standalone="no"?>
<!DOCTYPE svg PUBLIC "-//W3C//DTD SVG 20010904//EN"
 "http://www.w3.org/TR/2001/REC-SVG-20010904/DTD/svg10.dtd">
<svg version="1.0" xmlns="http://www.w3.org/2000/svg"
 width="48.000000pt" height="48.000000pt" viewBox="0 0 48.000000 48.000000"
 preserveAspectRatio="xMidYMid meet">

<g transform="translate(0.000000,48.000000) scale(0.100000,-0.100000)"
fill="#000000" stroke="none">
<path d="M380 405 c-22 -27 -79 -36 -113 -18 -30 15 -32 15 -51 -9 -12 -14
-33 -33 -48 -43 -25 -16 -30 -16 -60 -1 -28 14 -34 15 -47 2 -12 -12 -12 -18
-1 -31 7 -8 20 -13 29 -10 9 2 29 -2 46 -11 29 -15 31 -14 50 9 11 13 32 32
47 42 25 15 30 16 59 1 29 -15 33 -14 57 4 13 11 33 20 42 20 28 0 45 27 30
45 -16 19 -24 19 -40 0z"/>
</g>
</svg>
