<?xml version="1.0" standalone="yes"?>
<svg xmlns="http://www.w3.org/2000/svg" width="48" height="48">
<path style="fill:#010101; stroke:none;" d="M0 0L0 48L48 48L48 0L0 0z"/>
<path style="fill:#017f7f; stroke:none;" d="M17 4L18 5L17 4z"/>
<path style="fill:#14afe1; stroke:none;" d="M39 39L24 24L44 24C43.6049 5.45267 18.3259 -4.77464 7.13349 12.0401C-7.58412 34.1509 20.1286 51.3289 39 39z"/>
<path style="fill:#3e53b8; stroke:none;" d="M30 4L31 5L30 4M39 10L40 11L39 10z"/>
<path style="fill:#017f7f; stroke:none;" d="M4 17L5 18L4 17z"/>
<path style="fill:#3e53b8; stroke:none;" d="M43 17L44 18L43 17z"/>
<path style="fill:#017f7f; stroke:none;" d="M24 24L27 27L24 24z"/>
<path style="fill:#3e53b8; stroke:none;" d="M25 24L38 38L39 38L44 24L25 24z"/>
<path style="fill:#0101ff; stroke:none;" d="M43 30L44 31L43 30z"/>
<path style="fill:#017f7f; stroke:none;" d="M39 37L40 38L39 37M30 43L31 44L30 43z"/>
</svg>
